<svg xmlns="http://www.w3.org/2000/svg" viewBox="0 0 133.97 133.97"><defs><style>.cls-1{fill:#1d1d1b;}.cls-2{fill:#e83b3b;}.cls-3{fill:#fff;}</style></defs><title>Element 3</title><g id="Ebene_2" data-name="Ebene 2"><g id="Ebene_1-2" data-name="Ebene 1"><rect class="cls-1" width="133.97" height="133.97" rx="18.13"/><path class="cls-2" d="M92.46,66v3.6a1.63,1.63,0,0,1-1.63,1.63H44.71a1.62,1.62,0,0,1-1.62-1.63V66a1.62,1.62,0,0,1,1.62-1.63H56.46V35.86H48.69a1.32,1.32,0,0,1-1.32-1.32V30.66a1.32,1.32,0,0,1,1.32-1.31H86.85a1.32,1.32,0,0,1,1.32,1.31v3.88a1.32,1.32,0,0,1-1.32,1.32H79.09V64.32H90.83A1.63,1.63,0,0,1,92.46,66Z"/><polygon class="cls-3" points="69.66 101.04 67.77 102.71 65.89 101.04 69.66 101.04"/><rect class="cls-3" x="65.89" y="71.18" width="3.77" height="29.87"/></g></g></svg>