<svg xmlns="http://www.w3.org/2000/svg" viewBox="0 0 133.97 133.97"><defs><style>.cls-1{fill:#1d1d1b;}.cls-2{fill:#3c3c3b;}.cls-3{fill:#e83b3b;}.cls-4{fill:#fff;}</style></defs><title>Element 4</title><g id="Ebene_2" data-name="Ebene 2"><g id="Ebene_1-2" data-name="Ebene 1"><rect class="cls-1" width="133.97" height="133.97" rx="18.13"/><rect class="cls-2" x="59.44" y="34.57" width="22.63" height="28.46"/><rect class="cls-2" x="50.36" y="28.06" width="40.8" height="6.51" rx="1.32"/><rect class="cls-2" x="46.07" y="63.03" width="49.37" height="6.86" rx="1.63"/><polyline class="cls-2" points="72.64 99.76 70.76 101.43 68.87 99.76"/><rect class="cls-2" x="68.87" y="69.89" width="3.77" height="29.87"/><path class="cls-3" d="M93.55,65.94v3.6a1.63,1.63,0,0,1-1.63,1.63H45.81a1.63,1.63,0,0,1-1.63-1.63v-3.6a1.62,1.62,0,0,1,1.63-1.62H57.55V35.86H49.79a1.32,1.32,0,0,1-1.32-1.32V30.66a1.32,1.32,0,0,1,1.32-1.32H88a1.32,1.32,0,0,1,1.32,1.32v3.88A1.32,1.32,0,0,1,88,35.86H80.18V64.32H91.92A1.62,1.62,0,0,1,93.55,65.94Z"/><polyline class="cls-4" points="70.76 101.04 68.87 102.71 66.99 101.04"/><rect class="cls-4" x="66.99" y="71.17" width="3.77" height="29.87"/></g></g></svg>